<?xml version="1.0" encoding="utf-8"?>
<!-- Svg Vector Icons : http://www.onlinewebfonts.com/icon -->
<!DOCTYPE svg PUBLIC "-//W3C//DTD SVG 1.1//EN" "http://www.w3.org/Graphics/SVG/1.1/DTD/svg11.dtd">
<svg version="1.1" xmlns="http://www.w3.org/2000/svg" xmlns:xlink="http://www.w3.org/1999/xlink" x="0px" y="0px" viewBox="0 0 1000 1000" enable-background="new 0 0 1000 1000" xml:space="preserve">
<metadata> Svg Vector Icons : http://www.onlinewebfonts.com/icon </metadata>
<g><path d="M316.7,887.5L316.7,887.5l-3.9,4.9C211.4,807.8,61.3,716.5,66.1,564c3.7-116.7,122.4-217.9,241.4-177.5l-1.8,5.3l0.3,0.1l-2,4.2c-83.5-22.6-187.1,57.6-190.6,170.1C108.6,716,218.4,801.9,317.8,884.9L316.7,887.5z"/><path d="M675.7,929c137.4-102.4,271.2-293,179.6-470.3c-50.3-95.9-216.8-194-299.8-69.5l-5.2-3.4l0.1-0.1l-5-3.3c87.7-131.7,301.3-44.2,360.2,49.6c100,175.2-85.5,404.4-223.3,507.2L675.7,929z"/><path d="M605.1,978c25.3-7.6,40.7-15.9,50.7-22.5c-16.3-17.8-34.8-37-45.5-45c128.5-25.3,219.9-229.3,3-363.5c14.6-14.7,16-60.1,11.3-62.8c-3.7-2.9-10.6-7.9-19.6-14.6v162.9c56.8,0,103,46.1,103,103c0,56.8-46.1,103-103,103V978L605.1,978z M605.1,807.8V685.4c14.9-16.1,42.6-27.8,70.8,6.9C707.4,737.2,648.6,785.1,605.1,807.8z M369.3,249.2c0.8,3.3,0.7,8.6,0,14.7v287.8c1.7,3.7,3.5,7.4,5.4,11.1c36.2,72,37.3,137.4,27.5,187.9c-10.4-12.4-22.1-26.2-33-38.9v81c6.3,5,11.8,9.8,16.1,14.4c-5.8,14.2-11.6,25.6-16.1,33.7v85.6C418,953,497.8,991.1,550.7,990c22-3.4,39.8-7.6,54.4-12V838.4c-56.8,0-102.9-46.1-102.9-103c0-56.8,46.1-103,102.9-103V469.6c-53.8-40.2-180.3-141.4-114-212.9c84.7,23.3,64.4-13.5,59.6-28.8c5.9-6.7,10.8-5.9,10.3-9.6c-0.9-4.3-7.5-8.8-7.5-8.8s5.9-2.9,8.2-7c-0.8-3.7-8.1-6.1-7.9-17c8.3-3.3,17.8-11.4,14.4-18c-3.2-9.8-29.1-19.2-28.3-44.3c0.5-1.9,1.8-3.7,1.8-3.7s-4.9-42.3-42.9-76.6c0.6-2.5,5.6-13-9.5-19.5c-22.6-8.3-77.3-22.5-119.9-4.8L369.3,249.2L369.3,249.2z M605.1,685.4v122.3c-8.9,4.6-17.2,8.2-23.9,10.5c14.9-31.6-25.1-42.1-47.7-69.9c-32-60.1,38.6-84.7,64.9-54C600.1,691.4,602.4,688.4,605.1,685.4z M319.5,75.6c-55.1-36.5-66.3,115.7-0.9,100c4.2,5.7-0.3,60.7,48.9,70.4c0.9,0.6,1.5,1.7,1.9,3.2V18.5C347.6,27.5,329,44.9,319.5,75.6L319.5,75.6z M369.3,264c-1.9,16-7.7,37.4-10.7,42.9c-3.6,13.1-14.8,37.6-19.9,73c-15.4,49.6-70.1,228.1-79.8,283c-9.8,55.3,68.1,96.4,110.5,130v-81c-14.2-16.4-27-30.9-34.2-37.9c-14.3-13.8,12.5-72.1,33.1-124.6c0.4,0.8,0.7,1.6,1.1,2.4L369.3,264L369.3,264z M369.3,841.1c-3.1,5.6-5.4,9.5-6.7,11.8c-4.4,8-19.5,26.5-24.1,56.4c7.4,4.4,18,10.5,30.8,17.4V841.1L369.3,841.1z"/></g>
</svg>